<svg width="180" height="80" viewBox="0 0 321 113" fill="none" xmlns="http://www.w3.org/2000/svg">
<rect width="321" height="113" rx="10" fill="#0F193B"/>
<path d="M62.7322 33.4567C62.647 32.5973 62.2813 31.9297 61.6349 31.4538C60.9886 30.978 60.1115 30.7401 59.0036 30.7401C58.2507 30.7401 57.6151 30.8466 57.0966 31.0597C56.5781 31.2656 56.1804 31.5533 55.9034 31.9226C55.6335 32.2919 55.4986 32.7109 55.4986 33.1797C55.4844 33.5703 55.5661 33.9112 55.7436 34.2024C55.9283 34.4936 56.1804 34.7457 56.5 34.9588C56.8196 35.1648 57.1889 35.3459 57.608 35.5021C58.027 35.6513 58.4744 35.7791 58.9503 35.8857L60.9105 36.3544C61.8622 36.5675 62.7358 36.8516 63.5312 37.2067C64.3267 37.5618 65.0156 37.9986 65.598 38.517C66.1804 39.0355 66.6314 39.6463 66.951 40.3494C67.2777 41.0526 67.4446 41.8587 67.4517 42.7678C67.4446 44.103 67.1037 45.2607 66.429 46.2408C65.7614 47.2138 64.7955 47.9702 63.5312 48.5099C62.2741 49.0426 60.7578 49.3089 58.9822 49.3089C57.2209 49.3089 55.6868 49.0391 54.38 48.4993C53.0803 47.9595 52.0646 47.1605 51.3331 46.1023C50.6087 45.0369 50.2287 43.7195 50.1932 42.1499H54.657C54.7067 42.8814 54.9162 43.4922 55.2855 43.9822C55.6619 44.4652 56.1626 44.831 56.7876 45.0795C57.4197 45.321 58.1335 45.4418 58.929 45.4418C59.7102 45.4418 60.3885 45.3281 60.9638 45.1009C61.5462 44.8736 61.9972 44.5575 62.3168 44.1527C62.6364 43.7479 62.7962 43.2827 62.7962 42.7571C62.7962 42.267 62.6506 41.8551 62.3594 41.5213C62.0753 41.1875 61.6563 40.9034 61.1023 40.669C60.5554 40.4347 59.8842 40.2216 59.0888 40.0298L56.7131 39.4332C54.8736 38.9858 53.4212 38.2862 52.3558 37.3345C51.2905 36.3828 50.7614 35.1009 50.7685 33.4886C50.7614 32.1676 51.1129 31.0135 51.8232 30.0263C52.5405 29.0391 53.5241 28.2685 54.7741 27.7145C56.0241 27.1605 57.4446 26.8835 59.0355 26.8835C60.6548 26.8835 62.0682 27.1605 63.2756 27.7145C64.4901 28.2685 65.4347 29.0391 66.1094 30.0263C66.7841 31.0135 67.1321 32.157 67.1534 33.4567H62.7322ZM97.9178 27.1818H102.531V41.3509C102.531 42.9418 102.151 44.3338 101.391 45.527C100.638 46.7202 99.5833 47.6506 98.2267 48.3182C96.8702 48.9787 95.29 49.3089 93.486 49.3089C91.6749 49.3089 90.0911 48.9787 88.7346 48.3182C87.378 47.6506 86.3233 46.7202 85.5705 45.527C84.8176 44.3338 84.4412 42.9418 84.4412 41.3509V27.1818H89.0542V40.9567C89.0542 41.7876 89.2353 42.5263 89.5975 43.1726C89.9668 43.8189 90.4853 44.3267 91.1529 44.696C91.8205 45.0653 92.5982 45.25 93.486 45.25C94.3809 45.25 95.1586 45.0653 95.8191 44.696C96.4867 44.3267 97.0016 43.8189 97.3638 43.1726C97.7331 42.5263 97.9178 41.7876 97.9178 40.9567V27.1818ZM138.462 27.1818V49H134.478L124.985 35.2678H124.826V49H120.213V27.1818H124.261L133.679 40.9034H133.87V27.1818H138.462ZM156.16 49V27.1818H164.768C166.416 27.1818 167.822 27.4766 168.987 28.0661C170.159 28.6484 171.05 29.4759 171.661 30.5483C172.279 31.6136 172.588 32.8672 172.588 34.3089C172.588 35.7578 172.275 37.0043 171.65 38.0483C171.025 39.0852 170.119 39.8807 168.933 40.4347C167.754 40.9886 166.327 41.2656 164.651 41.2656H158.887V37.5582H163.905C164.786 37.5582 165.517 37.4375 166.1 37.196C166.682 36.9545 167.115 36.5923 167.399 36.1094C167.691 35.6264 167.836 35.0263 167.836 34.3089C167.836 33.5845 167.691 32.9737 167.399 32.4766C167.115 31.9794 166.678 31.603 166.089 31.3473C165.507 31.0845 164.771 30.9531 163.884 30.9531H160.773V49H156.16ZM167.943 39.071L173.365 49H168.273L162.968 39.071H167.943ZM189.734 49V27.1818H204.436V30.9851H194.347V36.1839H203.68V39.9872H194.347V45.1967H204.479V49H189.734ZM221.99 49V27.1818H230.598C232.246 27.1818 233.652 27.4766 234.817 28.0661C235.989 28.6484 236.88 29.4759 237.491 30.5483C238.109 31.6136 238.418 32.8672 238.418 34.3089C238.418 35.7578 238.105 37.0043 237.48 38.0483C236.855 39.0852 235.95 39.8807 234.763 40.4347C233.585 40.9886 232.157 41.2656 230.481 41.2656H224.717V37.5582H229.735C230.616 37.5582 231.347 37.4375 231.93 37.196C232.512 36.9545 232.945 36.5923 233.229 36.1094C233.521 35.6264 233.666 35.0263 233.666 34.3089C233.666 33.5845 233.521 32.9737 233.229 32.4766C232.945 31.9794 232.509 31.603 231.919 31.3473C231.337 31.0845 230.602 30.9531 229.714 30.9531H226.603V49H221.99ZM233.773 39.071L239.195 49H234.103L228.798 39.071H233.773ZM275.614 38.0909C275.614 40.4702 275.163 42.4943 274.261 44.1634C273.366 45.8324 272.145 47.1072 270.596 47.9879C269.055 48.8615 267.322 49.2983 265.397 49.2983C263.458 49.2983 261.718 48.858 260.177 47.9773C258.636 47.0966 257.418 45.8217 256.523 44.1527C255.628 42.4837 255.181 40.4631 255.181 38.0909C255.181 35.7116 255.628 33.6875 256.523 32.0185C257.418 30.3494 258.636 29.0781 260.177 28.2045C261.718 27.3239 263.458 26.8835 265.397 26.8835C267.322 26.8835 269.055 27.3239 270.596 28.2045C272.145 29.0781 273.366 30.3494 274.261 32.0185C275.163 33.6875 275.614 35.7116 275.614 38.0909ZM270.937 38.0909C270.937 36.5497 270.706 35.25 270.245 34.1918C269.79 33.1335 269.147 32.331 268.316 31.7841C267.485 31.2372 266.512 30.9638 265.397 30.9638C264.282 30.9638 263.309 31.2372 262.478 31.7841C261.647 32.331 261.001 33.1335 260.539 34.1918C260.085 35.25 259.858 36.5497 259.858 38.0909C259.858 39.6321 260.085 40.9318 260.539 41.9901C261.001 43.0483 261.647 43.8509 262.478 44.3977C263.309 44.9446 264.282 45.218 265.397 45.218C266.512 45.218 267.485 44.9446 268.316 44.3977C269.147 43.8509 269.79 43.0483 270.245 41.9901C270.706 40.9318 270.937 39.6321 270.937 38.0909Z" fill="#FB8DA0"/>
<path d="M122.219 85V72.6364H126.856C127.806 72.6364 128.603 72.8014 129.246 73.1314C129.894 73.4614 130.383 73.9242 130.713 74.5199C131.047 75.1115 131.214 75.8017 131.214 76.5906C131.214 77.3834 131.045 78.0716 130.707 78.6552C130.373 79.2347 129.88 79.6835 129.228 80.0014C128.576 80.3153 127.775 80.4723 126.826 80.4723H123.523V78.6129H126.524C127.079 78.6129 127.534 78.5365 127.888 78.3835C128.242 78.2266 128.504 77.9992 128.673 77.7013C128.846 77.3995 128.933 77.0292 128.933 76.5906C128.933 76.1519 128.846 75.7776 128.673 75.4677C128.5 75.1538 128.236 74.9163 127.882 74.7553C127.528 74.5903 127.071 74.5078 126.512 74.5078H124.459V85H122.219ZM128.607 79.3977L131.667 85H129.168L126.162 79.3977H128.607ZM137.493 85V72.6364H145.534V74.5138H139.733V77.8704H145.118V79.7479H139.733V83.1225H145.582V85H137.493ZM158.755 76.0352C158.699 75.5079 158.461 75.0974 158.043 74.8036C157.628 74.5098 157.089 74.3629 156.425 74.3629C155.958 74.3629 155.557 74.4334 155.223 74.5742C154.889 74.7151 154.634 74.9062 154.457 75.1477C154.28 75.3892 154.189 75.6649 154.185 75.9748C154.185 76.2324 154.243 76.4557 154.36 76.6449C154.481 76.834 154.644 76.995 154.849 77.1278C155.054 77.2566 155.282 77.3653 155.531 77.4538C155.781 77.5424 156.032 77.6168 156.286 77.6772L157.445 77.967C157.912 78.0756 158.361 78.2225 158.791 78.4077C159.226 78.5928 159.614 78.8262 159.956 79.108C160.302 79.3897 160.576 79.7298 160.777 80.1282C160.979 80.5266 161.079 80.9935 161.079 81.5288C161.079 82.2532 160.894 82.8911 160.524 83.4425C160.154 83.9898 159.618 84.4184 158.918 84.7283C158.222 85.0342 157.379 85.1871 156.388 85.1871C155.427 85.1871 154.592 85.0382 153.883 84.7404C153.179 84.4426 152.627 84.0079 152.229 83.4364C151.835 82.8649 151.621 82.1687 151.589 81.3477H153.793C153.825 81.7783 153.958 82.1365 154.191 82.4222C154.424 82.708 154.728 82.9213 155.103 83.0621C155.481 83.203 155.904 83.2734 156.37 83.2734C156.857 83.2734 157.284 83.201 157.65 83.0561C158.02 82.9072 158.31 82.7019 158.52 82.4403C158.729 82.1747 158.835 81.8648 158.839 81.5107C158.835 81.1887 158.741 80.9231 158.556 80.7138C158.371 80.5005 158.111 80.3234 157.777 80.1825C157.447 80.0376 157.061 79.9089 156.618 79.7962L155.211 79.4339C154.193 79.1723 153.388 78.7759 152.797 78.2447C152.209 77.7094 151.915 76.9991 151.915 76.1136C151.915 75.3852 152.112 74.7473 152.507 74.1999C152.905 73.6526 153.446 73.228 154.131 72.9261C154.815 72.6203 155.59 72.4673 156.455 72.4673C157.332 72.4673 158.101 72.6203 158.761 72.9261C159.425 73.228 159.946 73.6486 160.325 74.1879C160.703 74.7231 160.898 75.3389 160.91 76.0352H158.755ZM178.34 78.8182C178.34 80.1503 178.091 81.2913 177.592 82.2411C177.097 83.1869 176.421 83.9113 175.563 84.4144C174.71 84.9175 173.742 85.169 172.66 85.169C171.577 85.169 170.607 84.9175 169.75 84.4144C168.897 83.9073 168.22 83.1809 167.721 82.2351C167.226 81.2853 166.979 80.1463 166.979 78.8182C166.979 77.486 167.226 76.3471 167.721 75.4013C168.22 74.4515 168.897 73.725 169.75 73.2219C170.607 72.7189 171.577 72.4673 172.66 72.4673C173.742 72.4673 174.71 72.7189 175.563 73.2219C176.421 73.725 177.097 74.4515 177.592 75.4013C178.091 76.3471 178.34 77.486 178.34 78.8182ZM176.089 78.8182C176.089 77.8804 175.942 77.0896 175.648 76.4457C175.358 75.7977 174.956 75.3087 174.44 74.9787C173.925 74.6446 173.332 74.4776 172.66 74.4776C171.987 74.4776 171.394 74.6446 170.879 74.9787C170.363 75.3087 169.959 75.7977 169.665 76.4457C169.375 77.0896 169.231 77.8804 169.231 78.8182C169.231 79.7559 169.375 80.5488 169.665 81.1967C169.959 81.8407 170.363 82.3297 170.879 82.6637C171.394 82.9937 171.987 83.1587 172.66 83.1587C173.332 83.1587 173.925 82.9937 174.44 82.6637C174.956 82.3297 175.358 81.8407 175.648 81.1967C175.942 80.5488 176.089 79.7559 176.089 78.8182ZM184.675 85V72.6364H189.311C190.261 72.6364 191.058 72.8014 191.702 73.1314C192.349 73.4614 192.838 73.9242 193.169 74.5199C193.503 75.1115 193.67 75.8017 193.67 76.5906C193.67 77.3834 193.501 78.0716 193.162 78.6552C192.828 79.2347 192.335 79.6835 191.683 80.0014C191.031 80.3153 190.231 80.4723 189.281 80.4723H185.979V78.6129H188.979C189.534 78.6129 189.989 78.5365 190.343 78.3835C190.697 78.2266 190.959 77.9992 191.128 77.7013C191.301 77.3995 191.388 77.0292 191.388 76.5906C191.388 76.1519 191.301 75.7776 191.128 75.4677C190.955 75.1538 190.691 74.9163 190.337 74.7553C189.983 74.5903 189.526 74.5078 188.967 74.5078H186.914V85H184.675ZM191.062 79.3977L194.122 85H191.623L188.617 79.3977H191.062ZM199.405 74.5138V72.6364H209.269V74.5138H205.448V85H203.226V74.5138H199.405Z" fill="#FB8DA0"/>
</svg>
